# xmcd
#
# Track frame offsets:
#	150
#	30385
#	54422
#	76210
#	82335
#	113600
#	138260
#
# Disc length: 2372 seconds
#
# Revision: 0
# Processed by: cddbd v1.5.2PL0 Copyright (c) Steve Scherf et al.
# Submitted via: EasyCDDAExtractor 2011.0.0.0
#
DISCID=4d094207
DTITLE=Freddie King - Texas Cannon Ball
DYEAR=2015
DGENRE=Blues
TTITLE0=Your move
TTITLE1=Ain't gonna worry
TTITLE2=Hideaway
TTITLE3=Guitar blues
TTITLE4=Meet me in the morning
TTITLE5=Sweet home Chicago
TTITLE6=Boogie on down
EXTD=
EXTT0=
EXTT1=
EXTT2=
EXTT3=
EXTT4=
EXTT5=
EXTT6=
PLAYORDER=
